<?xml version="1.0" standalone="no"?>
<!DOCTYPE svg PUBLIC "-//W3C//DTD SVG 20010904//EN"
 "http://www.w3.org/TR/2001/REC-SVG-20010904/DTD/svg10.dtd">
<svg version="1.0" xmlns="http://www.w3.org/2000/svg"
 width="700.000000pt" height="700.000000pt" viewBox="0 0 700.000000 700.000000"
 preserveAspectRatio="xMidYMid meet">
<metadata>
Created by potrace 1.14, written by Peter Selinger 2001-2017
</metadata>
<g transform="translate(0.000000,700.000000) scale(0.100000,-0.100000)"
fill="#000000" stroke="none">
<path d="M0 3500 l0 -3500 3500 0 3500 0 0 3500 0 3500 -3500 0 -3500 0 0
-3500z m6220 2395 c0 -363 -1 -369 -68 -438 -46 -47 -101 -63 -247 -72 -787
-46 -1606 -330 -2283 -791 -613 -418 -1116 -977 -1475 -1639 -327 -603 -516
-1300 -544 -2002 l-6 -173 -329 0 c-304 0 -332 1 -366 19 -51 26 -99 77 -113
120 -24 71 6 439 62 771 87 514 233 970 461 1440 129 268 212 411 374 655 218
328 402 553 679 830 344 344 693 616 1103 859 677 400 1498 663 2267 726 72 5
148 12 170 13 22 2 102 4 178 5 l137 2 0 -325z m0 -1645 c0 -361 -1 -366 -59
-433 -43 -49 -91 -64 -261 -82 -1012 -110 -1898 -730 -2345 -1640 -195 -397
-279 -727 -311 -1228 l-6 -88 -338 3 -338 3 -44 30 c-23 17 -54 51 -68 75 -21
39 -24 56 -22 131 1 47 11 156 22 242 186 1451 1195 2667 2594 3128 340 113
742 181 1094 188 l82 1 0 -330z m-2 -1668 l-3 -348 -28 -42 c-40 -61 -89 -89
-187 -107 -415 -77 -758 -327 -954 -695 -84 -158 -146 -389 -146 -542 l0 -68
-327 0 c-368 0 -378 2 -440 73 -61 70 -64 138 -18 363 177 850 866 1521 1725
1679 94 17 234 32 323 34 l58 1 -3 -348z"/>
</g>
</svg>
