<svg id="svg" version="1.1" xmlns="http://www.w3.org/2000/svg" xmlns:xlink="http://www.w3.org/1999/xlink" width="400" height="77.74625050668828" viewBox="0, 0, 400,77.74625050668828"><g id="svgg"><path id="path4" d="M75.127 18.951 C 75.334 18.991,75.634 18.990,75.794 18.948 C 75.953 18.906,75.783 18.874,75.417 18.875 C 75.050 18.877,74.920 18.911,75.127 18.951 M103.792 18.951 C 103.998 18.991,104.335 18.991,104.542 18.951 C 104.748 18.911,104.579 18.879,104.167 18.879 C 103.754 18.879,103.585 18.911,103.792 18.951 M136.458 18.951 C 136.665 18.991,137.002 18.991,137.208 18.951 C 137.415 18.911,137.246 18.879,136.833 18.879 C 136.421 18.879,136.252 18.911,136.458 18.951 M164.792 18.951 C 164.998 18.991,165.335 18.991,165.542 18.951 C 165.748 18.911,165.579 18.879,165.167 18.879 C 164.754 18.879,164.585 18.911,164.792 18.951 M212.794 18.951 C 213.001 18.991,213.301 18.990,213.460 18.948 C 213.620 18.906,213.450 18.874,213.083 18.875 C 212.717 18.877,212.586 18.911,212.794 18.951 M234.958 18.951 C 235.165 18.991,235.502 18.991,235.708 18.951 C 235.915 18.911,235.746 18.879,235.333 18.879 C 234.921 18.879,234.752 18.911,234.958 18.951 M267.211 18.953 C 267.464 18.991,267.839 18.990,268.044 18.951 C 268.249 18.911,268.042 18.880,267.583 18.881 C 267.125 18.882,266.957 18.915,267.211 18.953 M329.125 18.951 C 329.331 18.991,329.669 18.991,329.875 18.951 C 330.081 18.911,329.912 18.879,329.500 18.879 C 329.087 18.879,328.919 18.911,329.125 18.951 M358.708 18.953 C 358.960 18.991,359.373 18.991,359.625 18.953 C 359.877 18.915,359.671 18.883,359.167 18.883 C 358.662 18.883,358.456 18.915,358.708 18.953 M177.883 24.667 C 177.883 25.171,177.915 25.377,177.953 25.125 C 177.991 24.873,177.991 24.460,177.953 24.208 C 177.915 23.956,177.883 24.162,177.883 24.667 M43.794 30.451 C 44.001 30.491,44.301 30.490,44.460 30.448 C 44.620 30.406,44.450 30.374,44.083 30.375 C 43.717 30.377,43.586 30.411,43.794 30.451 M228.548 38.957 C 229.078 38.990,229.903 38.990,230.381 38.956 C 230.859 38.922,230.425 38.895,229.417 38.896 C 228.408 38.896,228.017 38.924,228.548 38.957 M322.714 38.957 C 323.245 38.990,324.070 38.990,324.548 38.956 C 325.026 38.922,324.592 38.895,323.583 38.896 C 322.575 38.896,322.184 38.924,322.714 38.957 M227.794 44.451 C 228.001 44.491,228.301 44.490,228.460 44.448 C 228.620 44.406,228.450 44.374,228.083 44.375 C 227.717 44.377,227.586 44.411,227.794 44.451 M229.125 44.451 C 229.331 44.491,229.669 44.491,229.875 44.451 C 230.081 44.411,229.912 44.379,229.500 44.379 C 229.088 44.379,228.919 44.411,229.125 44.451 M322.292 44.455 C 322.681 44.490,323.319 44.490,323.708 44.455 C 324.098 44.420,323.779 44.392,323.000 44.392 C 322.221 44.392,321.902 44.420,322.292 44.455 " stroke="none" fill="#80ac8c" fill-rule="evenodd"></path><path id="path0" d="M194.917 0.105 C 190.205 0.829,186.745 2.995,185.217 6.178 C 184.010 8.693,183.725 10.580,183.688 16.292 L 183.667 19.667 181.542 19.683 C 177.945 19.711,177.923 19.743,177.988 24.625 L 178.000 25.500 180.833 25.500 L 183.667 25.500 183.667 43.417 L 183.667 61.333 186.574 61.333 C 189.407 61.333,189.493 61.323,189.949 60.931 L 190.417 60.529 190.461 43.014 L 190.505 25.500 193.824 25.500 C 198.056 25.500,197.771 25.769,197.870 21.667 L 197.917 19.750 194.196 19.705 L 190.475 19.660 190.537 15.455 C 190.632 9.061,191.292 7.854,195.417 6.527 C 196.728 6.106,201.181 6.176,202.833 6.645 C 203.521 6.840,204.203 7.030,204.349 7.068 C 204.852 7.199,205.508 4.231,205.263 2.929 C 204.872 0.843,199.557 -0.607,194.917 0.105 M61.125 0.569 C 59.185 1.091,59.333 -1.530,59.333 32.189 L 59.333 61.362 61.792 61.320 C 64.665 61.271,65.813 61.133,66.016 60.814 C 66.096 60.686,66.163 53.187,66.165 44.000 L 66.169 27.417 66.709 27.050 C 69.217 25.350,73.188 24.797,75.051 25.889 C 75.956 26.419,76.187 26.727,76.704 28.092 L 77.080 29.083 77.165 45.167 L 77.250 61.250 79.750 61.257 C 82.586 61.264,83.612 61.130,83.939 60.709 C 84.385 60.136,84.157 26.822,83.695 24.917 C 82.779 21.146,81.144 19.564,77.682 19.098 C 73.754 18.571,69.938 19.421,66.922 21.496 L 66.167 22.016 66.167 11.175 L 66.167 0.333 64.042 0.345 C 62.873 0.351,61.560 0.452,61.125 0.569 M151.120 0.494 C 150.190 0.674,149.713 0.983,149.424 1.591 C 149.195 2.074,149.167 5.385,149.167 31.756 L 149.167 61.378 152.208 61.279 C 155.786 61.162,155.255 61.221,155.571 60.905 C 155.806 60.670,155.833 58.916,155.833 44.092 L 155.833 27.541 156.708 26.942 C 160.026 24.672,165.021 24.820,166.057 27.218 C 166.183 27.510,166.391 27.975,166.518 28.250 C 166.709 28.662,166.765 31.606,166.833 45.000 L 166.917 61.250 169.333 61.266 C 172.242 61.285,173.310 61.152,173.618 60.731 C 173.996 60.214,173.841 26.520,173.453 24.917 C 172.409 20.599,170.170 18.981,165.235 18.977 C 161.882 18.975,159.239 19.749,156.667 21.489 L 155.917 21.997 155.874 11.165 L 155.831 0.333 153.790 0.352 C 152.668 0.363,151.466 0.427,151.120 0.494 M39.000 17.336 C 32.367 18.234,27.236 20.038,21.250 23.575 C 20.517 24.008,19.892 24.431,19.861 24.515 C 19.831 24.598,19.734 24.667,19.646 24.667 C 18.424 24.667,10.617 32.199,8.332 35.583 C 8.023 36.042,7.709 36.442,7.635 36.472 C 7.561 36.503,7.500 36.594,7.500 36.675 C 7.500 36.756,7.102 37.443,6.615 38.203 C 3.223 43.495,0.943 50.174,0.170 57.083 C -0.316 61.430,-0.111 61.667,4.130 61.667 L 6.793 61.667 6.915 59.708 C 6.982 58.631,7.065 57.600,7.101 57.417 C 7.136 57.233,7.247 56.446,7.347 55.667 C 7.641 53.385,8.645 49.751,9.581 47.583 C 9.700 47.308,9.922 46.746,10.076 46.333 C 10.629 44.847,13.534 39.927,14.463 38.903 C 14.623 38.727,15.011 38.246,15.326 37.833 C 17.085 35.533,23.249 30.000,24.053 30.000 C 24.094 30.000,24.568 29.708,25.106 29.352 C 28.433 27.144,34.454 24.897,38.333 24.415 C 38.837 24.352,39.287 24.279,39.333 24.251 C 39.379 24.224,40.054 24.152,40.833 24.090 C 44.702 23.783,44.667 23.824,44.667 19.742 L 44.667 17.000 42.958 17.016 C 42.019 17.025,40.237 17.169,39.000 17.336 M102.987 18.943 C 100.533 19.220,98.673 19.813,97.207 20.786 C 96.130 21.500,94.167 23.283,94.167 23.545 C 94.167 23.640,93.973 23.973,93.735 24.284 C 91.367 27.389,89.957 34.908,90.241 42.917 C 90.764 57.670,93.657 61.993,103.033 62.037 C 109.968 62.070,114.044 58.608,115.915 51.097 C 117.575 44.430,117.324 32.455,115.407 26.917 C 115.090 26.000,114.809 25.166,114.784 25.064 C 113.854 21.348,108.107 18.366,102.987 18.943 M134.884 19.031 C 132.808 19.260,130.542 20.086,128.858 21.228 C 128.368 21.561,127.923 21.833,127.871 21.833 C 127.703 21.833,125.825 23.868,125.343 24.573 C 121.001 30.913,120.803 51.460,125.021 58.032 C 126.001 59.561,128.618 61.499,129.700 61.500 C 129.857 61.500,130.157 61.573,130.367 61.663 C 132.304 62.488,138.679 62.033,141.075 60.899 C 143.720 59.647,144.195 58.486,143.404 55.209 L 143.118 54.026 142.518 54.394 C 139.551 56.210,134.838 56.536,132.629 55.077 C 131.339 54.226,130.244 52.379,129.819 50.336 C 129.732 49.922,129.630 49.433,129.591 49.250 C 128.712 45.090,128.999 34.912,130.106 31.007 C 131.621 25.659,136.990 23.468,142.185 26.077 C 143.197 26.585,143.252 26.560,143.585 25.451 C 144.099 23.739,144.065 22.139,143.497 21.356 C 142.140 19.483,138.846 18.594,134.884 19.031 M211.797 18.922 C 211.771 18.946,211.266 19.014,210.674 19.073 C 208.656 19.272,206.596 19.920,204.417 21.040 C 203.683 21.416,202.915 21.805,202.710 21.904 C 202.504 22.003,202.335 22.140,202.335 22.208 C 202.334 22.277,202.229 22.333,202.101 22.333 C 201.676 22.333,201.667 22.761,201.667 42.111 L 201.667 61.362 204.125 61.329 C 206.982 61.292,208.247 61.107,208.434 60.700 C 208.506 60.544,208.594 52.954,208.630 43.833 L 208.696 27.249 209.723 26.632 C 211.972 25.282,215.431 25.108,217.583 26.238 L 218.083 26.500 218.450 25.375 C 219.462 22.270,218.584 19.830,216.250 19.260 C 216.158 19.237,215.896 19.168,215.667 19.106 C 215.258 18.995,211.890 18.835,211.797 18.922 M232.750 19.099 C 227.641 19.770,224.715 22.285,222.489 27.917 C 220.161 33.806,219.847 47.746,221.909 53.701 C 222.236 54.645,222.523 55.492,222.547 55.583 C 222.997 57.294,225.418 59.916,227.410 60.849 C 232.729 63.342,243.739 61.781,245.167 58.332 C 245.428 57.702,245.300 54.595,244.970 53.554 L 244.750 52.858 243.750 53.361 C 239.175 55.664,233.975 56.189,231.295 54.618 C 229.031 53.292,227.855 50.360,227.625 45.470 L 227.573 44.356 230.161 44.336 C 231.585 44.325,233.275 44.285,233.917 44.249 C 234.558 44.212,235.908 44.138,236.917 44.084 C 239.811 43.929,244.577 43.289,244.874 43.016 C 245.544 42.400,246.112 30.640,245.600 28.000 C 244.269 21.144,239.950 18.152,232.750 19.099 M265.069 19.104 C 261.513 19.552,258.430 21.056,256.153 23.453 C 254.771 24.908,254.399 25.423,253.163 27.596 C 252.441 28.866,251.183 33.416,250.909 35.750 C 250.844 36.300,250.755 36.900,250.710 37.083 C 250.270 38.880,250.533 48.667,251.100 51.583 C 252.165 57.071,255.159 61.011,258.833 61.760 C 261.495 62.302,265.018 62.025,266.672 61.142 C 267.461 60.721,268.827 59.644,269.246 59.112 L 269.663 58.583 269.665 68.030 L 269.667 77.476 270.615 77.595 C 271.770 77.739,274.590 77.584,275.228 77.342 C 276.343 76.918,276.245 79.518,276.294 49.063 L 276.337 21.519 275.627 21.040 C 274.643 20.377,272.988 19.644,271.917 19.398 C 269.872 18.928,267.330 18.819,265.069 19.104 M327.438 19.030 C 320.949 19.671,317.188 23.826,315.560 32.152 C 314.940 35.324,314.653 44.310,315.036 48.583 C 315.713 56.142,319.061 60.886,324.333 61.755 C 325.998 62.030,328.172 62.112,330.083 61.971 C 331.275 61.884,332.362 61.809,332.500 61.805 C 334.128 61.761,337.780 60.243,338.763 59.203 C 339.592 58.324,339.770 55.916,339.173 53.645 L 338.971 52.874 337.683 53.512 C 333.861 55.405,328.977 56.041,326.264 55.000 C 323.583 53.972,322.254 51.255,321.865 46.012 L 321.741 44.333 324.579 44.315 C 327.419 44.296,327.971 44.277,331.083 44.091 C 335.246 43.843,338.984 43.230,339.158 42.769 C 339.868 40.883,340.271 31.279,339.764 28.333 C 339.497 26.781,338.871 24.498,338.667 24.333 C 338.611 24.287,338.462 23.996,338.336 23.686 C 336.998 20.381,332.634 18.516,327.438 19.030 M357.417 18.961 C 354.574 19.151,349.915 20.188,347.333 21.205 L 345.917 21.763 345.874 41.570 L 345.832 61.376 348.874 61.286 C 350.548 61.236,352.043 61.146,352.197 61.084 C 352.815 60.839,352.833 60.324,352.833 43.078 L 352.833 26.205 353.708 25.855 C 357.377 24.388,361.392 24.600,362.644 26.328 C 363.733 27.832,363.716 27.543,363.788 45.313 L 363.854 61.376 366.802 61.286 C 369.973 61.189,370.605 61.057,370.752 60.464 C 371.034 59.331,370.742 27.243,370.438 25.917 C 369.233 20.663,365.088 18.449,357.417 18.961 M286.167 19.829 C 284.014 19.953,283.877 20.013,283.745 20.890 C 283.488 22.609,283.778 51.701,284.067 53.167 C 285.555 60.700,290.469 63.239,300.673 61.747 C 302.736 61.446,305.417 60.612,307.875 59.507 L 308.667 59.151 308.667 39.487 C 308.667 22.088,308.638 19.812,308.415 19.726 C 307.759 19.475,302.303 19.922,302.066 20.246 C 301.871 20.513,301.833 23.302,301.833 37.606 L 301.833 54.648 300.625 55.242 C 296.858 57.092,292.409 56.276,291.300 53.532 L 290.917 52.583 290.873 36.333 C 290.848 27.396,290.794 19.990,290.753 19.875 C 290.672 19.652,289.445 19.639,286.167 19.829 M377.349 19.884 C 376.227 20.277,375.553 23.029,376.071 25.095 L 376.173 25.500 384.267 25.500 L 392.362 25.500 391.907 26.292 C 391.189 27.542,390.685 28.465,389.790 30.167 C 389.332 31.037,388.517 32.544,387.979 33.516 C 387.440 34.487,387.000 35.368,387.000 35.474 C 387.000 35.580,386.925 35.667,386.833 35.667 C 386.742 35.667,386.683 35.723,386.704 35.792 C 386.724 35.860,386.450 36.442,386.095 37.083 C 385.740 37.725,385.086 38.905,384.641 39.705 C 384.197 40.506,383.833 41.197,383.833 41.242 C 383.833 41.286,383.282 42.318,382.607 43.536 C 381.933 44.754,381.023 46.425,380.584 47.250 C 380.146 48.075,379.343 49.553,378.799 50.535 C 378.256 51.517,377.808 52.380,377.804 52.452 C 377.800 52.524,377.658 52.778,377.489 53.016 C 375.532 55.764,375.093 59.274,376.495 60.962 L 376.809 61.341 387.446 61.295 C 400.633 61.239,399.694 61.550,399.808 57.208 L 399.866 55.000 391.766 55.000 C 387.312 55.000,383.667 54.950,383.667 54.889 C 383.667 54.829,384.091 53.985,384.609 53.014 C 386.088 50.244,386.793 48.907,387.959 46.667 C 389.029 44.610,390.039 42.701,391.090 40.750 C 391.386 40.200,392.038 38.962,392.539 38.000 C 393.322 36.493,394.292 34.654,397.684 28.250 C 399.670 24.499,399.995 23.625,399.998 22.033 C 400.000 21.017,399.693 20.075,399.268 19.794 C 398.936 19.574,377.988 19.661,377.349 19.884 M105.428 24.916 C 108.629 25.886,109.523 29.485,109.423 41.000 C 109.324 52.297,107.817 56.186,103.486 56.319 C 98.983 56.459,97.465 51.982,97.718 39.305 C 97.946 27.855,100.346 23.375,105.428 24.916 M267.580 25.090 C 268.121 25.231,268.812 25.499,269.115 25.687 L 269.667 26.027 269.667 38.936 L 269.667 51.844 269.232 52.702 C 268.993 53.174,268.712 53.650,268.607 53.761 C 268.502 53.872,268.298 54.102,268.152 54.273 C 265.612 57.252,261.226 56.480,259.507 52.752 C 257.828 49.111,257.620 38.625,259.098 32.192 C 260.376 26.633,263.491 24.024,267.580 25.090 M236.854 25.466 C 238.301 26.222,238.891 27.761,239.170 31.500 C 239.292 33.138,239.131 36.991,238.912 37.683 C 238.721 38.283,235.705 38.745,230.768 38.931 L 227.620 39.049 227.733 37.483 C 227.835 36.078,228.011 34.473,228.267 32.606 C 229.050 26.892,233.114 23.512,236.854 25.466 M330.380 25.177 C 331.839 25.582,332.689 26.831,333.091 29.161 C 333.566 31.915,333.445 37.534,332.901 37.943 C 332.277 38.413,326.841 38.994,323.026 38.999 L 321.802 39.000 321.916 37.375 C 322.568 28.030,325.490 23.819,330.380 25.177 M42.996 30.388 C 42.952 30.428,42.320 30.509,41.591 30.568 C 32.788 31.276,24.356 36.245,18.894 43.945 C 16.291 47.613,14.327 52.698,13.733 57.309 C 13.196 61.472,13.367 61.667,17.572 61.667 L 20.333 61.667 20.333 60.762 C 20.333 58.463,21.502 53.218,22.201 52.375 C 22.296 52.260,22.324 52.167,22.262 52.167 C 22.097 52.167,23.459 49.573,24.232 48.417 C 28.028 42.737,33.736 38.922,40.167 37.764 C 42.016 37.431,42.485 37.364,43.058 37.347 C 43.364 37.338,43.735 37.132,44.100 36.767 L 44.667 36.200 44.667 33.350 L 44.667 30.500 44.208 30.498 C 43.956 30.496,43.598 30.455,43.412 30.405 C 43.227 30.355,43.039 30.347,42.996 30.388 M42.000 44.115 C 41.039 44.274,38.713 44.873,38.250 45.081 C 36.015 46.082,35.762 46.225,34.009 47.495 C 30.499 50.038,28.185 53.752,27.248 58.345 C 26.657 61.241,27.016 61.564,30.907 61.638 L 33.788 61.694 33.904 60.509 C 34.197 57.541,35.524 55.169,38.107 53.000 C 38.942 52.298,41.056 51.339,42.369 51.065 C 44.561 50.608,44.667 50.408,44.667 46.742 L 44.667 44.000 43.542 44.023 C 42.923 44.035,42.229 44.077,42.000 44.115 " stroke="none" fill="#7cac8c" fill-rule="evenodd"></path><path id="path1" d="M75.127 18.951 C 75.334 18.991,75.634 18.990,75.794 18.948 C 75.953 18.906,75.783 18.874,75.417 18.875 C 75.050 18.877,74.920 18.911,75.127 18.951 M103.792 18.951 C 103.998 18.991,104.335 18.991,104.542 18.951 C 104.748 18.911,104.579 18.879,104.167 18.879 C 103.754 18.879,103.585 18.911,103.792 18.951 M136.458 18.951 C 136.665 18.991,137.002 18.991,137.208 18.951 C 137.415 18.911,137.246 18.879,136.833 18.879 C 136.421 18.879,136.252 18.911,136.458 18.951 M164.792 18.951 C 164.998 18.991,165.335 18.991,165.542 18.951 C 165.748 18.911,165.579 18.879,165.167 18.879 C 164.754 18.879,164.585 18.911,164.792 18.951 M212.794 18.951 C 213.001 18.991,213.301 18.990,213.460 18.948 C 213.620 18.906,213.450 18.874,213.083 18.875 C 212.717 18.877,212.586 18.911,212.794 18.951 M234.958 18.951 C 235.165 18.991,235.502 18.991,235.708 18.951 C 235.915 18.911,235.746 18.879,235.333 18.879 C 234.921 18.879,234.752 18.911,234.958 18.951 M267.211 18.953 C 267.464 18.991,267.839 18.990,268.044 18.951 C 268.249 18.911,268.042 18.880,267.583 18.881 C 267.125 18.882,266.957 18.915,267.211 18.953 M329.125 18.951 C 329.331 18.991,329.669 18.991,329.875 18.951 C 330.081 18.911,329.912 18.879,329.500 18.879 C 329.087 18.879,328.919 18.911,329.125 18.951 M358.708 18.953 C 358.960 18.991,359.373 18.991,359.625 18.953 C 359.877 18.915,359.671 18.883,359.167 18.883 C 358.662 18.883,358.456 18.915,358.708 18.953 M177.883 24.667 C 177.883 25.171,177.915 25.377,177.953 25.125 C 177.991 24.873,177.991 24.460,177.953 24.208 C 177.915 23.956,177.883 24.162,177.883 24.667 M43.794 30.451 C 44.001 30.491,44.301 30.490,44.460 30.448 C 44.620 30.406,44.450 30.374,44.083 30.375 C 43.717 30.377,43.586 30.411,43.794 30.451 M228.548 38.957 C 229.078 38.990,229.903 38.990,230.381 38.956 C 230.859 38.922,230.425 38.895,229.417 38.896 C 228.408 38.896,228.017 38.924,228.548 38.957 M322.714 38.957 C 323.245 38.990,324.070 38.990,324.548 38.956 C 325.026 38.922,324.592 38.895,323.583 38.896 C 322.575 38.896,322.184 38.924,322.714 38.957 M227.794 44.451 C 228.001 44.491,228.301 44.490,228.460 44.448 C 228.620 44.406,228.450 44.374,228.083 44.375 C 227.717 44.377,227.586 44.411,227.794 44.451 M229.125 44.451 C 229.331 44.491,229.669 44.491,229.875 44.451 C 230.081 44.411,229.912 44.379,229.500 44.379 C 229.088 44.379,228.919 44.411,229.125 44.451 M322.292 44.455 C 322.681 44.490,323.319 44.490,323.708 44.455 C 324.098 44.420,323.779 44.392,323.000 44.392 C 322.221 44.392,321.902 44.420,322.292 44.455 " stroke="none" fill="#80ac8c" fill-rule="evenodd"></path><path id="path2" d="M75.127 18.951 C 75.334 18.991,75.634 18.990,75.794 18.948 C 75.953 18.906,75.783 18.874,75.417 18.875 C 75.050 18.877,74.920 18.911,75.127 18.951 M103.792 18.951 C 103.998 18.991,104.335 18.991,104.542 18.951 C 104.748 18.911,104.579 18.879,104.167 18.879 C 103.754 18.879,103.585 18.911,103.792 18.951 M136.458 18.951 C 136.665 18.991,137.002 18.991,137.208 18.951 C 137.415 18.911,137.246 18.879,136.833 18.879 C 136.421 18.879,136.252 18.911,136.458 18.951 M164.792 18.951 C 164.998 18.991,165.335 18.991,165.542 18.951 C 165.748 18.911,165.579 18.879,165.167 18.879 C 164.754 18.879,164.585 18.911,164.792 18.951 M212.794 18.951 C 213.001 18.991,213.301 18.990,213.460 18.948 C 213.620 18.906,213.450 18.874,213.083 18.875 C 212.717 18.877,212.586 18.911,212.794 18.951 M234.958 18.951 C 235.165 18.991,235.502 18.991,235.708 18.951 C 235.915 18.911,235.746 18.879,235.333 18.879 C 234.921 18.879,234.752 18.911,234.958 18.951 M267.211 18.953 C 267.464 18.991,267.839 18.990,268.044 18.951 C 268.249 18.911,268.042 18.880,267.583 18.881 C 267.125 18.882,266.957 18.915,267.211 18.953 M329.125 18.951 C 329.331 18.991,329.669 18.991,329.875 18.951 C 330.081 18.911,329.912 18.879,329.500 18.879 C 329.087 18.879,328.919 18.911,329.125 18.951 M358.708 18.953 C 358.960 18.991,359.373 18.991,359.625 18.953 C 359.877 18.915,359.671 18.883,359.167 18.883 C 358.662 18.883,358.456 18.915,358.708 18.953 M177.883 24.667 C 177.883 25.171,177.915 25.377,177.953 25.125 C 177.991 24.873,177.991 24.460,177.953 24.208 C 177.915 23.956,177.883 24.162,177.883 24.667 M43.794 30.451 C 44.001 30.491,44.301 30.490,44.460 30.448 C 44.620 30.406,44.450 30.374,44.083 30.375 C 43.717 30.377,43.586 30.411,43.794 30.451 M228.548 38.957 C 229.078 38.990,229.903 38.990,230.381 38.956 C 230.859 38.922,230.425 38.895,229.417 38.896 C 228.408 38.896,228.017 38.924,228.548 38.957 M322.714 38.957 C 323.245 38.990,324.070 38.990,324.548 38.956 C 325.026 38.922,324.592 38.895,323.583 38.896 C 322.575 38.896,322.184 38.924,322.714 38.957 M227.794 44.451 C 228.001 44.491,228.301 44.490,228.460 44.448 C 228.620 44.406,228.450 44.374,228.083 44.375 C 227.717 44.377,227.586 44.411,227.794 44.451 M229.125 44.451 C 229.331 44.491,229.669 44.491,229.875 44.451 C 230.081 44.411,229.912 44.379,229.500 44.379 C 229.088 44.379,228.919 44.411,229.125 44.451 M322.292 44.455 C 322.681 44.490,323.319 44.490,323.708 44.455 C 324.098 44.420,323.779 44.392,323.000 44.392 C 322.221 44.392,321.902 44.420,322.292 44.455 " stroke="none" fill="#80ac8c" fill-rule="evenodd"></path><path id="path3" d="M75.127 18.951 C 75.334 18.991,75.634 18.990,75.794 18.948 C 75.953 18.906,75.783 18.874,75.417 18.875 C 75.050 18.877,74.920 18.911,75.127 18.951 M103.792 18.951 C 103.998 18.991,104.335 18.991,104.542 18.951 C 104.748 18.911,104.579 18.879,104.167 18.879 C 103.754 18.879,103.585 18.911,103.792 18.951 M136.458 18.951 C 136.665 18.991,137.002 18.991,137.208 18.951 C 137.415 18.911,137.246 18.879,136.833 18.879 C 136.421 18.879,136.252 18.911,136.458 18.951 M164.792 18.951 C 164.998 18.991,165.335 18.991,165.542 18.951 C 165.748 18.911,165.579 18.879,165.167 18.879 C 164.754 18.879,164.585 18.911,164.792 18.951 M212.794 18.951 C 213.001 18.991,213.301 18.990,213.460 18.948 C 213.620 18.906,213.450 18.874,213.083 18.875 C 212.717 18.877,212.586 18.911,212.794 18.951 M234.958 18.951 C 235.165 18.991,235.502 18.991,235.708 18.951 C 235.915 18.911,235.746 18.879,235.333 18.879 C 234.921 18.879,234.752 18.911,234.958 18.951 M267.211 18.953 C 267.464 18.991,267.839 18.990,268.044 18.951 C 268.249 18.911,268.042 18.880,267.583 18.881 C 267.125 18.882,266.957 18.915,267.211 18.953 M329.125 18.951 C 329.331 18.991,329.669 18.991,329.875 18.951 C 330.081 18.911,329.912 18.879,329.500 18.879 C 329.087 18.879,328.919 18.911,329.125 18.951 M358.708 18.953 C 358.960 18.991,359.373 18.991,359.625 18.953 C 359.877 18.915,359.671 18.883,359.167 18.883 C 358.662 18.883,358.456 18.915,358.708 18.953 M177.883 24.667 C 177.883 25.171,177.915 25.377,177.953 25.125 C 177.991 24.873,177.991 24.460,177.953 24.208 C 177.915 23.956,177.883 24.162,177.883 24.667 M43.794 30.451 C 44.001 30.491,44.301 30.490,44.460 30.448 C 44.620 30.406,44.450 30.374,44.083 30.375 C 43.717 30.377,43.586 30.411,43.794 30.451 M228.548 38.957 C 229.078 38.990,229.903 38.990,230.381 38.956 C 230.859 38.922,230.425 38.895,229.417 38.896 C 228.408 38.896,228.017 38.924,228.548 38.957 M322.714 38.957 C 323.245 38.990,324.070 38.990,324.548 38.956 C 325.026 38.922,324.592 38.895,323.583 38.896 C 322.575 38.896,322.184 38.924,322.714 38.957 M227.794 44.451 C 228.001 44.491,228.301 44.490,228.460 44.448 C 228.620 44.406,228.450 44.374,228.083 44.375 C 227.717 44.377,227.586 44.411,227.794 44.451 M229.125 44.451 C 229.331 44.491,229.669 44.491,229.875 44.451 C 230.081 44.411,229.912 44.379,229.500 44.379 C 229.088 44.379,228.919 44.411,229.125 44.451 M322.292 44.455 C 322.681 44.490,323.319 44.490,323.708 44.455 C 324.098 44.420,323.779 44.392,323.000 44.392 C 322.221 44.392,321.902 44.420,322.292 44.455 " stroke="none" fill="#80ac8c" fill-rule="evenodd"></path><path id="path4" d="M75.127 18.951 C 75.334 18.991,75.634 18.990,75.794 18.948 C 75.953 18.906,75.783 18.874,75.417 18.875 C 75.050 18.877,74.920 18.911,75.127 18.951 M103.792 18.951 C 103.998 18.991,104.335 18.991,104.542 18.951 C 104.748 18.911,104.579 18.879,104.167 18.879 C 103.754 18.879,103.585 18.911,103.792 18.951 M136.458 18.951 C 136.665 18.991,137.002 18.991,137.208 18.951 C 137.415 18.911,137.246 18.879,136.833 18.879 C 136.421 18.879,136.252 18.911,136.458 18.951 M164.792 18.951 C 164.998 18.991,165.335 18.991,165.542 18.951 C 165.748 18.911,165.579 18.879,165.167 18.879 C 164.754 18.879,164.585 18.911,164.792 18.951 M212.794 18.951 C 213.001 18.991,213.301 18.990,213.460 18.948 C 213.620 18.906,213.450 18.874,213.083 18.875 C 212.717 18.877,212.586 18.911,212.794 18.951 M234.958 18.951 C 235.165 18.991,235.502 18.991,235.708 18.951 C 235.915 18.911,235.746 18.879,235.333 18.879 C 234.921 18.879,234.752 18.911,234.958 18.951 M267.211 18.953 C 267.464 18.991,267.839 18.990,268.044 18.951 C 268.249 18.911,268.042 18.880,267.583 18.881 C 267.125 18.882,266.957 18.915,267.211 18.953 M329.125 18.951 C 329.331 18.991,329.669 18.991,329.875 18.951 C 330.081 18.911,329.912 18.879,329.500 18.879 C 329.087 18.879,328.919 18.911,329.125 18.951 M358.708 18.953 C 358.960 18.991,359.373 18.991,359.625 18.953 C 359.877 18.915,359.671 18.883,359.167 18.883 C 358.662 18.883,358.456 18.915,358.708 18.953 M177.883 24.667 C 177.883 25.171,177.915 25.377,177.953 25.125 C 177.991 24.873,177.991 24.460,177.953 24.208 C 177.915 23.956,177.883 24.162,177.883 24.667 M43.794 30.451 C 44.001 30.491,44.301 30.490,44.460 30.448 C 44.620 30.406,44.450 30.374,44.083 30.375 C 43.717 30.377,43.586 30.411,43.794 30.451 M228.548 38.957 C 229.078 38.990,229.903 38.990,230.381 38.956 C 230.859 38.922,230.425 38.895,229.417 38.896 C 228.408 38.896,228.017 38.924,228.548 38.957 M322.714 38.957 C 323.245 38.990,324.070 38.990,324.548 38.956 C 325.026 38.922,324.592 38.895,323.583 38.896 C 322.575 38.896,322.184 38.924,322.714 38.957 M227.794 44.451 C 228.001 44.491,228.301 44.490,228.460 44.448 C 228.620 44.406,228.450 44.374,228.083 44.375 C 227.717 44.377,227.586 44.411,227.794 44.451 M229.125 44.451 C 229.331 44.491,229.669 44.491,229.875 44.451 C 230.081 44.411,229.912 44.379,229.500 44.379 C 229.088 44.379,228.919 44.411,229.125 44.451 M322.292 44.455 C 322.681 44.490,323.319 44.490,323.708 44.455 C 324.098 44.420,323.779 44.392,323.000 44.392 C 322.221 44.392,321.902 44.420,322.292 44.455 " stroke="none" fill="#80ac8c" fill-rule="evenodd"></path></g></svg>